<?xml version="1.0" encoding="utf-8"?>
<!-- Generator: Adobe Illustrator 27.7.0, SVG Export Plug-In . SVG Version: 6.00 Build 0)  -->
<svg version="1.1" id="Layer_1" xmlns="http://www.w3.org/2000/svg" xmlns:xlink="http://www.w3.org/1999/xlink" x="0px" y="0px"
	 width="207px" height="52px" viewBox="0 0 207 52" style="enable-background:new 0 0 207 52;" xml:space="preserve">
<style type="text/css">
	.st0{fill:#A67DFF;}
</style>
<path class="st0" d="M203.2,33.6c-1.1-2.3-3-3-5.3-3.1c-1.5-0.1-6.6-0.1-8.8-0.1c-0.4,0-0.5-0.4-0.2-0.7c2.6-2,9.9-7.4,11.9-9.7
	c2.8-3.3,4.2-7.8,2.9-12c-1.7-5.6-8.4-5.5-13.1-5.7c-5.9-0.2-12-0.3-17.9,0.1c-2.6,0.1-5.4,0.8-7,3.1c-1.9,2.8-1.6,6.6-0.9,9.8
	c0.7,3.2,2.5,5.4,5.9,5.7c1.8,0.1,6,0.1,8.2,0.1c0.4,0,0.5,0.5,0.2,0.7c-3.1,2-12,7.9-14.7,9.6c-0.3,0.2-0.6-0.1-0.6-0.4
	c0.4-1.7,0.6-3.4,0.5-5.2c0-13.4-10.9-24.4-24.3-24.4c-6.5,0-12.5,2.6-16.9,6.8c-0.2,0.2-0.5,0.2-0.6,0c-4.4-4.2-10.3-6.8-16.8-6.8
	c-6.5,0-12.3,2.5-16.6,6.6c-0.2,0.2-0.6,0.1-0.6-0.2c0-0.2-0.1-0.4-0.1-0.6c-0.2-1.6-0.8-5.3-8.5-5.3S71.5,5.4,71.3,7
	c-0.3,2-0.3,5.6-0.1,9.3c0,0.4-0.5,0.5-0.7,0.2c-2.6-3.9-9.2-14.7-18.3-14.7c-9.7,0-9.8,10.7-9.7,15.4c0,4.1,0,8.1,0,12.2
	c0,0.3-0.4,0.4-0.5,0.1c-3.3-7.6-13.8-9.5-16.9-9.9c-0.5-0.1-0.9-0.5-0.9-1c0-0.7,0.7-1.2,1.4-1c3,1.1,8.4,2.9,11.7,1.1
	c4.1-2.3,4.7-8.5,1.9-11.8c-2-2.4-5.2-3.6-8.2-4.4c-6.1-1.6-13.2-1.7-19,1c-5.6,2.7-9.3,8.5-8.6,14.5c0.4,3.5,2.9,9.9,15.1,12.8
	c0.5,0.1,0.8,0.5,0.8,1c0,0.7-0.7,1.2-1.4,1c-3.5-1.3-8.5-2.4-12-0.5c-3.3,1.8-4.6,6.3-3.5,9.7c1.7,5.2,8.4,7,13.4,7.8
	c3.6,0.5,7.4,0.5,11.1,0.2c4.5-0.4,13-2,15.5-10.2c0.1-0.3,0.5-0.2,0.5,0.1c0.1,1.6,0.3,3.1,0.5,4.7c0.2,1.6,0.8,5.3,8.5,5.3
	s8.3-3.7,8.5-5.3c0.3-2,0.3-5.6,0.1-9.4c0-0.4,0.4-0.5,0.7-0.2c2.8,3.9,10.4,14.8,18.4,14.8c2.6,0,4.5-0.8,5.9-1.9
	c0.3-0.2,0.3-0.6,0.1-0.9c-5-7.3-8.1-16.6-5.6-25.1c0.6-2.1,1.6-4.1,2.9-5.8c0.2-0.3,0.6,0,0.5,0.3c-1.3,3-2,6.4-1.9,9.9
	c0.2,13.1,11.2,24.1,24.3,24.1c4.8,0,9.2-1.4,13-3.7c0.3-0.2,0.4-0.6,0.2-0.9c-4.5-7.1-7.1-15.8-4.7-23.8c0.6-2.1,1.6-4.1,2.9-5.8
	c0.2-0.3,0.6,0,0.5,0.3c-1.3,3-2,6.4-1.9,9.9c0.2,13.1,11.3,24.1,24.3,24.1c7.4,0,14.1-3.4,18.5-8.6c0.2-0.2,0.5-0.1,0.5,0.2
	c0.1,0.9,0.3,1.7,0.6,2.5c1.4,3.4,5.3,4.7,8.7,4.8c4.3,0.2,8.7,0.2,13,0.2c4.5,0,8.9,0,13.4-0.1c2.5-0.1,5.3-0.2,7.3-2
	C204.9,44.1,204.9,37.1,203.2,33.6L203.2,33.6z"/>
</svg>
